<!-- The font used is Noto Sans SC, under the license found at https://shungfei.com/fonts/noto-sans-sc/OFL.txt -->
<!-- SVG was generated using https://github.com/danmarshall/google-font-to-svg-path under the MIT license, and then slightly modified. -->
<svg viewBox="0 0 33.732 32.868" xmlns="http://www.w3.org/2000/svg"><g stroke-linecap="round" stroke="url(#gradient)" fill="url(#gradient)"><path d="M 27.684 27.288 L 27.684 1.692 L 13.248 1.692 L 13.248 13.14 A 52.219 52.219 0 0 1 13.103 17.306 C 12.798 21.123 11.894 25.212 9.355 28.649 A 16.011 16.011 0 0 1 7.272 30.96 A 4.004 4.004 0 0 1 7.511 31.107 C 8.101 31.497 8.938 32.212 9.252 32.652 A 18.254 18.254 0 0 0 13.959 25.469 C 15.13 22.332 15.585 18.999 15.737 15.98 A 55.707 55.707 0 0 0 15.804 13.176 L 15.804 4.212 L 25.092 4.212 L 25.092 27 A 39.726 39.726 0 0 0 25.104 28.027 C 25.152 29.891 25.35 30.556 25.728 30.986 A 2.037 2.037 0 0 0 25.92 31.176 A 3.161 3.161 0 0 0 27.224 31.773 C 27.433 31.819 27.642 31.846 27.842 31.856 A 3.382 3.382 0 0 0 28.008 31.86 L 30.024 31.86 C 30.78 31.86 31.464 31.752 32.004 31.356 A 2.048 2.048 0 0 0 32.68 30.601 C 32.774 30.427 32.857 30.228 32.93 30.001 A 6.167 6.167 0 0 0 33.084 29.412 A 8.722 8.722 0 0 0 33.144 28.928 C 33.256 27.822 33.338 25.805 33.37 24.098 A 96.098 96.098 0 0 0 33.372 24.012 A 5.791 5.791 0 0 1 32.907 23.85 C 32.336 23.624 31.735 23.289 31.285 22.891 A 3.52 3.52 0 0 1 31.212 22.824 C 31.212 25.2 31.14 27.036 31.068 27.9 A 5.715 5.715 0 0 1 31.043 28.238 C 30.998 28.664 30.91 28.913 30.788 29.074 A 0.733 0.733 0 0 1 30.672 29.196 A 0.603 0.603 0 0 1 30.441 29.332 C 30.303 29.38 30.137 29.401 29.972 29.408 A 3.62 3.62 0 0 1 29.808 29.412 L 28.62 29.412 A 1.462 1.462 0 0 1 28.155 29.349 A 0.715 0.715 0 0 1 27.936 29.232 A 0.5 0.5 0 0 1 27.83 29.042 C 27.734 28.767 27.69 28.256 27.685 27.467 A 25.311 25.311 0 0 1 27.684 27.288 Z M 1.008 30.384 L 3.276 32.112 C 5.133 29.082 7.344 25.138 9.108 21.614 A 101.713 101.713 0 0 0 9.648 20.52 L 7.668 18.792 A 99.249 99.249 0 0 1 6.168 21.715 C 4.427 24.979 2.473 28.255 1.008 30.384 Z M 22.428 20.052 L 24.48 18.288 A 12.416 12.416 0 0 0 23.731 17.206 C 22.304 15.339 19.975 13.106 17.82 11.52 L 15.876 13.068 A 30.682 30.682 0 0 1 16.821 13.846 C 18.904 15.628 20.987 17.855 22.144 19.602 A 11.262 11.262 0 0 1 22.428 20.052 Z M 3.42 0 L 1.944 1.944 A 26.241 26.241 0 0 1 3.244 2.523 C 5.226 3.469 7.273 4.716 8.498 5.754 A 9.393 9.393 0 0 1 8.712 5.94 L 10.296 3.78 C 8.895 2.579 6.226 1.131 3.951 0.208 A 24.784 24.784 0 0 0 3.42 0 Z M 1.44 9.648 L 0 11.664 A 34.045 34.045 0 0 1 1.437 12.245 C 3.375 13.079 5.384 14.135 6.629 15.026 A 9.648 9.648 0 0 1 6.948 15.264 L 8.424 12.996 C 6.997 11.967 4.283 10.693 2.006 9.851 A 32.319 32.319 0 0 0 1.44 9.648 Z"/></g>
  <defs>
    <linearGradient id="gradient" x1="0" x2="36" y1="0" y2="36" gradientUnits="userSpaceOnUse">
		<stop stop-color="var(--gradient-stop-1)" />
		<stop offset=".5" stop-color="var(--gradient-stop-2)" />
		<stop offset="1" stop-color="var(--gradient-stop-3)" />
    </linearGradient>
  </defs>
	<style>
	<!-- These variables that define gradient styles match those in global.css -->
    :root {
	--accent-light: hsl(215, 89%, 67%);
	--accent-regular: hsl(226, 81%, 36%);
	--accent-dark: hsl(250, 100%, 17%);

	/* Gradients */
	--gradient-stop-1: var(--accent-light);
	--gradient-stop-2: var(--accent-regular);
	--gradient-stop-3: var(--accent-dark);
	}
	@media (prefers-color-scheme:dark) {
		:root{
			--gradient-stop-1: hsl(260, 84%, 82%);
			--gradient-stop-2: hsl(216, 81%, 66%);
			--gradient-stop-3: hsl(215, 89%, 50%);
			}
		}
  </style>
</svg>
